<svg width="2500" height="1499" viewBox="0 0 2500 1499" fill="none" xmlns="http://www.w3.org/2000/svg">
<mask id="mask0_793_2303" style="mask-type:alpha" maskUnits="userSpaceOnUse" x="0" y="0" width="2500" height="1499">
<g clip-path="url(#clip0_793_2303)">
<path d="M1250 0C916.788 0 708.542 166.559 625.231 499.646C750.197 333.087 895.975 270.651 1062.57 312.275C1157.63 336.024 1225.56 404.992 1300.78 481.302C1423.28 605.612 1565.06 749.484 1874.77 749.484C2207.95 749.484 2416.22 582.925 2499.5 249.807C2374.57 416.366 2228.79 478.834 2062.17 437.21C1967.14 413.46 1899.2 344.493 1823.99 268.182C1701.49 143.872 1559.68 0 1250 0ZM625.231 749.484C292.051 749.484 83.7737 916.043 0.494141 1249.16C125.429 1082.6 271.207 1020.13 437.829 1061.79C532.858 1085.57 600.794 1154.51 676.011 1230.79C798.509 1355.1 940.318 1499 1250 1499C1583.21 1499 1791.46 1332.44 1874.77 999.323C1749.8 1165.88 1604.02 1228.35 1437.43 1186.69C1342.37 1162.98 1274.44 1093.98 1199.22 1017.7C1076.72 893.388 934.943 749.484 625.231 749.484Z" fill="#06B6D4"/>
</g>
</mask>
<g mask="url(#mask0_793_2303)">
<rect y="-73" width="2595" height="1664" fill="#4F45E4"/>
</g>
<defs>
<clipPath id="clip0_793_2303">
<rect width="2500" height="1499" fill="white"/>
</clipPath>
</defs>
</svg>
